<?xml version="1.0" encoding="utf-8"?>
<!-- Generator: Adobe Illustrator 28.1.0, SVG Export Plug-In . SVG Version: 6.00 Build 0)  -->
<svg version="1.1" id="Layer_1" xmlns="http://www.w3.org/2000/svg" xmlns:xlink="http://www.w3.org/1999/xlink" x="0px" y="0px"
	 viewBox="0 0 100 100" style="enable-background:new 0 0 100 100;" xml:space="preserve">
<style type="text/css">
	.st0{fill:none;stroke:#F4A10C;stroke-width:3;stroke-linecap:square;stroke-miterlimit:1;}
</style>
<g>
	<path class="st0" d="M25.9,71.7L1.8,57.2l24.1-14.4L50,57.2v26.5L25.9,98.2V71.7z"/>
	<path class="st0" d="M1.8,57.2v26.5l24.1,14.4 M25.9,71.9L50,57.3 M74.1,71.7L50,57.2l24.1-14.4l24.1,14.4v26.5L74.1,98.2V71.7z
		 M50,83.7l24.1,14.4 M74.1,71.7l24.1-14.4 M50,57.2V30.7L25.9,16.3L50,1.8l24.1,14.4v26.5 M25.9,16.4v26.3 M50,30.7l24.1-14.4"/>
</g>
</svg>
